<svg height="473pt" viewBox="-5 0 473 473.44661" width="473pt" xmlns="http://www.w3.org/2000/svg"><path d="m287.957031 473.445312-8.050781-18.910156c-9.695312-22.777344-6.519531-48.996094 8.335938-68.800781l-51.480469-51.710937c-7.445313-7.476563-9.136719-18.933594-4.167969-28.242188l42.769531-80.191406c3.25-6.101563 8.972657-10.503906 15.703125-12.082032 6.730469-1.582031 13.816406-.179687 19.441406 3.84375l33.734376 24.09375v232zm0 0" fill="#f4a876"/><path d="m360.242188 249.445312 36.207031 43.679688c12.761719 14.585938 19.792969 33.304688 19.792969 52.679688v127.640624h-56zm0 0" fill="#feb784"/><path d="m4.539062 180.019531 80-138.5625c8.835938-15.304687 28.40625-20.546875 43.710938-11.710937l249.410156 144c15.304688 8.835937 20.546875 28.40625 11.710938 43.710937l-80 138.5625c-8.835938 15.304688-28.40625 20.546875-43.710938 11.710938l-249.410156-144c-15.304688-8.835938-20.546875-28.40625-11.710938-43.710938zm0 0" fill="#ccccca"/><path d="m66.882812 224.015625c-1.402343 0-2.78125-.367187-4-1.066406l-34.640624-20c-1.839844-1.058594-3.179688-2.808594-3.730469-4.859375-.550781-2.050782-.261719-4.238282.804687-6.074219l8-13.855469c3.179688-5.519531 8.421875-9.550781 14.574219-11.199218 6.152344-1.652344 12.707031-.789063 18.222656 2.398437l6.9375 4c11.476563 6.636719 15.410157 21.308594 8.800781 32.800781l-8 13.855469c-1.4375 2.488281-4.097656 4.011719-6.96875 4zm-23.703124-30.929687 20.800781 12 4-6.925782c2.207031-3.828125.898437-8.71875-2.929688-10.929687l-6.9375-4c-3.824219-2.203125-8.710937-.894531-10.917969 2.929687zm0 0" fill="#419bc2"/><path d="m61.671875 84.316406 138.5625-80c15.308594-8.835937 34.878906-3.59375 43.714844 11.710938l144 249.414062c8.835937 15.308594 3.59375 34.878906-11.714844 43.714844l-138.5625 80c-15.304687 8.835938-34.875 3.59375-43.710937-11.714844l-144-249.414062c-8.839844-15.304688-3.59375-34.875 11.710937-43.710938zm0 0" fill="#d6d6d4"/><path d="m92.242188 156.09375c-2.855469-.011719-5.488282-1.53125-6.925782-4l-20-34.648438c-2.210937-3.824218-.898437-8.71875 2.925782-10.925781l27.714843-16c3.824219-2.210937 8.71875-.898437 10.925781 2.925781l20 34.648438c2.210938 3.828125.898438 8.71875-2.925781 10.929688l-27.714843 16.023437c-1.21875.695313-2.597657 1.054687-4 1.046875zm-9.070313-39.710938 12 20.800782 13.855469-8-12-20.800782zm0 0" fill="#e94f4f"/><path d="m111.171875 164.882812 13.855469-8 8 13.855469-13.859375 8zm0 0" fill="#e94f4f"/><path d="m176.242188 17.445312h160c17.675781 0 32 14.328126 32 32v288c0 17.675782-14.324219 32-32 32h-160c-17.671876 0-32-14.324218-32-32v-288c0-17.671874 14.328124-32 32-32zm0 0" fill="#e0e0de"/><path d="m208.242188 97.445312h-32c-2.65625.003907-5.140626-1.3125-6.628907-3.511718-1.488281-2.203125-1.789062-4.996094-.800781-7.464844l16-40c1.210938-3.039062 4.15625-5.039062 7.429688-5.039062 3.277343 0 6.222656 2 7.433593 5.039062l16 40c.988281 2.46875.6875 5.261719-.800781 7.464844-1.492188 2.199218-3.976562 3.515625-6.632812 3.511718zm-20.183594-16h8.367187l-4.183593-10.460937zm0 0" fill="#419bc2"/><path d="m184.242188 113.445312h16v16h-16zm0 0" fill="#419bc2"/><path d="m309.671875 5.742188 138.566406 80c15.304688 8.835937 20.546875 28.40625 11.710938 43.710937l-144 249.414063c-8.835938 15.308593-28.40625 20.550781-43.710938 11.714843l-138.566406-80c-15.304687-8.835937-20.546875-28.40625-11.710937-43.714843l144-249.414063c8.835937-15.304687 28.40625-20.550781 43.710937-11.710937zm0 0" fill="#ebebe9"/><g fill="#e94f4f"><path d="m348.105469 195.847656-21.148438-60-62.585937 11.710938c-9.015625 1.6875-16.027344 8.8125-17.574219 17.851562-1.542969 9.042969 2.703125 18.089844 10.644531 22.675782l2.984375 1.71875c3.746094 2.171874 8.050781 3.179687 12.371094 2.898437l22.160156-1.433594 9.839844 19.90625c1.917969 3.878907 4.945313 7.105469 8.695313 9.269531l2.984374 1.722657c7.953126 4.601562 17.933594 3.753906 25-2.121094 7.0625-5.878906 9.710938-15.542969 6.628907-24.199219zm0 0"/><path d="m250.171875 220.796875 41.597656 24c-3.816406-14.25-3.332031-29.308594 1.394531-43.285156l1.824219-10.28125-8 6.71875c-9.746093 11.085937-22.558593 19.035156-36.816406 22.847656zm0 0"/><path d="m295.492188 86.246094c-4.199219.003906-8.324219-1.097656-11.960938-3.199219-5.519531-3.179687-9.546875-8.425781-11.199219-14.578125-1.648437-6.152344-.789062-12.707031 2.398438-18.222656l4-6.925782c6.628906-11.488281 21.3125-15.429687 32.800781-8.800781 11.488281 6.625 15.425781 21.3125 8.800781 32.800781l-4 6.925782c-3.171875 5.527344-8.417969 9.5625-14.578125 11.199218-2.042968.539063-4.148437.808594-6.261718.800782zm4.054687-38.933594c-2.863281-.007812-5.511719 1.519531-6.945313 4l-4 6.925781c-2.203124 3.824219-.890624 8.710938 2.929688 10.921875 3.824219 2.195313 8.703125.886719 10.910156-2.929687l4-6.929688c1.429688-2.46875 1.429688-5.515625.007813-7.988281s-4.054688-4-6.910157-4.011719zm0 0"/><path d="m260.605469 106.734375 8-13.855469 13.855469 7.996094-8 13.859375zm0 0"/></g><path d="m320.242188 473.445312-8.046876-18.910156c-9.699218-22.777344-6.519531-48.996094 8.335938-68.800781l-56-56c-11.046875-11.042969-11.046875-28.953125 0-40 11.042969-11.046875 28.957031-11.046875 40 0l72 72v111.710937zm0 0" fill="#feb784"/></svg>