<svg width="896" height="896" viewBox="0 0 896 896" fill="none" xmlns="http://www.w3.org/2000/svg">
<g clip-path="url(#clip0)">
<path d="M288.023 80.0544C287.992 75.3203 288.664 70.6018 290.023 66.0552C291.445 61.7039 293.452 57.5557 295.991 53.7356C304.452 40.7051 318.74 32.6119 334.278 32.0572C334.856 32.026 335.434 32.026 336.02 32.0572H487.659L288.023 377.912V80.0544ZM166.523 72.0549C172.882 61.0399 183.358 53.0013 195.646 49.7202C207.934 46.4314 221.019 48.1735 232.026 54.5559L233.019 55.134L147.93 104.201L166.523 72.0549ZM207.419 520.701L24.0391 414.84C1.04829 401.551 -6.83405 372.147 6.43859 349.148L61.7165 253.247L210.973 512.06C209.614 514.865 208.434 517.748 207.419 520.685V520.701ZM86.5431 232.046C83.4886 226.811 81.434 221.062 80.481 215.07L80.3872 214.148C77.8796 194.985 87.1837 176.205 103.933 166.581L112.096 161.94C112.713 161.589 113.307 161.19 113.87 160.753L256.119 78.7264C256.119 79.1795 256.025 79.5935 256.025 80.0388V433.331L229.292 479.633L86.5431 232.046ZM336.02 704.018C309.506 704.018 288.023 682.535 288.023 656.021V642.186L395.212 704.018H336.02ZM440.014 748.422C419.234 760.562 392.65 755.234 378.158 736.016H450.552L456.029 739.219L440.014 748.422ZM563.108 896.007L558.054 883.929C544.992 852.869 545.164 817.824 558.53 786.896C559.061 786.896 559.569 787.005 560.132 787.005C570.904 786.958 581.56 784.724 591.442 780.435C577.076 817.73 577.646 859.126 593.044 896.007H563.108ZM765.893 579.744C787.883 605.711 799.961 638.631 799.992 672.66V896.007H627.745L622.628 883.929C605.559 843.619 611.168 797.27 637.361 762.194C642.134 755.827 641.502 746.914 635.869 741.281L523.876 629.288C508.072 613.43 508.072 587.775 523.876 571.916C539.945 556.62 565.186 556.62 581.247 571.916L725.239 715.908L747.862 693.284L732.699 678.121C734.84 670.95 735.949 663.505 735.996 656.021V614.187C749.128 605.891 759.526 593.907 765.893 579.744ZM692.303 637.67C692.444 637.452 692.624 637.225 692.764 636.983L703.967 617.468V649.466L692.303 637.67ZM735.996 568.268V562.011L740.332 554.495C739.597 559.276 738.136 563.925 735.996 568.268ZM889.487 232.046L732.793 503.389L732.379 504.131L668.812 614.297L603.809 549.293C575.474 520.958 529.532 520.958 501.19 549.293C472.856 577.635 472.856 623.577 501.19 651.912L591.794 742.5C576.482 756.499 553.827 758.89 535.922 748.383L258.837 588.392C243.752 579.666 234.573 563.456 234.839 546.027C234.948 537.879 237.151 529.895 241.237 522.849L529.219 24.0733C542.515 1.09026 571.912 -6.78428 594.911 6.48057L872.035 166.471C883.065 172.83 891.112 183.322 894.393 195.634C897.666 207.938 895.9 221.046 889.487 232.046Z" fill="black"/>
</g>
<defs>
<clipPath id="clip0">
<rect width="896" height="896" fill="white"/>
</clipPath>
</defs>
</svg>
