<svg width="1024" height="1024" viewBox="0 0 1024 1024" fill="none" xmlns="http://www.w3.org/2000/svg">
<rect width="1024" height="1024" fill="white"/>
<rect width="1024" height="1024" fill="#35363A"/>
<path d="M618.845 959.998L603.609 924.21C585.261 881.104 591.271 831.485 619.385 794.004L521.958 696.141C507.868 681.992 504.667 660.309 514.07 642.693L595.012 490.93C601.162 479.383 611.992 471.051 624.73 468.065C637.467 465.071 650.877 467.724 661.523 475.339L725.365 520.936V959.998H618.845Z" fill="#F4A876"/>
<path d="M755.645 536.076L824.167 618.741C848.319 646.344 861.625 681.77 861.625 718.437V959.998H755.645V536.076Z" fill="#FEB784"/>
<path d="M82.4753 404.688L233.876 142.458C250.598 113.493 287.635 103.573 316.599 120.295L788.609 392.815C817.573 409.537 827.494 446.574 810.772 475.538L659.371 737.769C642.649 766.733 605.612 776.654 576.648 759.932L104.638 487.411C75.6741 470.689 65.7532 433.652 82.4753 404.688Z" fill="#CCCCCA"/>
<path d="M200.461 487.951C197.807 487.951 195.198 487.256 192.891 485.933L127.334 448.082C123.852 446.079 121.316 442.767 120.274 438.886C119.231 435.005 119.778 430.865 121.797 427.391L136.937 401.169C142.954 390.723 152.875 383.094 164.518 379.974C176.162 376.847 188.566 378.481 199.005 384.513L212.134 392.083C233.854 404.643 241.298 432.41 228.79 454.159L213.65 480.381C210.929 485.09 205.895 487.973 200.461 487.951ZM155.603 429.416L194.968 452.126L202.538 439.019C206.715 431.774 204.239 422.519 196.994 418.335L183.865 410.765C176.627 406.595 167.379 409.072 163.202 416.309L155.603 429.416Z" fill="#419BC2"/>
<path d="M190.599 223.569L452.83 72.1688C481.801 55.4468 518.838 65.3676 535.56 94.3318L808.081 566.349C824.803 595.321 814.882 632.358 785.91 649.08L523.68 800.48C494.716 817.202 457.679 807.281 440.957 778.31L168.436 306.292C151.707 277.328 161.635 240.291 190.599 223.569Z" fill="#D6D6D4"/>
<path d="M248.454 359.408C243.05 359.386 238.067 356.51 235.347 351.838L197.497 286.266C193.312 279.028 195.796 269.766 203.034 265.589L255.484 235.309C262.722 231.124 271.985 233.608 276.161 240.846L314.011 306.418C318.196 313.663 315.712 322.918 308.474 327.103L256.024 357.427C253.717 358.743 251.108 359.423 248.454 359.408ZM231.288 284.255L253.998 323.621L280.22 308.481L257.51 269.115L231.288 284.255Z" fill="#E94F4F"/>
<path d="M284.278 376.042L310.5 360.901L325.64 387.123L299.411 402.263L284.278 376.042Z" fill="#E94F4F"/>
<path d="M407.424 97.0153H710.225C743.677 97.0153 770.785 124.131 770.785 157.575V702.617C770.785 736.068 743.677 763.177 710.225 763.177H407.424C373.98 763.177 346.864 736.068 346.864 702.617V157.575C346.864 124.131 373.98 97.0153 407.424 97.0153Z" fill="#E0E0DE"/>
<path d="M467.984 248.416H407.424C402.397 248.423 397.696 245.932 394.879 241.77C392.063 237.6 391.493 232.315 393.364 227.643L423.644 151.942C425.935 146.191 431.509 142.406 437.704 142.406C443.907 142.406 449.481 146.191 451.773 151.942L482.053 227.643C483.923 232.315 483.354 237.6 480.537 241.77C477.713 245.932 473.011 248.423 467.984 248.416ZM429.787 218.136H445.622L437.704 198.338L429.787 218.136Z" fill="#419BC2"/>
<path d="M422.564 278.696H452.844V308.976H422.564V278.696Z" fill="#419BC2"/>
<path d="M659.941 74.8671L922.178 226.267C951.142 242.99 961.063 280.026 944.341 308.991L671.821 781.008C655.098 809.98 618.062 819.9 589.097 803.178L326.86 651.778C297.896 635.056 287.975 598.019 304.697 569.047L577.217 97.0301C593.94 68.0659 630.976 58.1376 659.941 74.8671Z" fill="#EBEBE9"/>
<path d="M633.105 227.221C625.158 227.229 617.352 225.144 610.469 221.167C600.024 215.149 592.402 205.221 589.275 193.577C586.155 181.934 587.781 169.529 593.814 159.091L601.384 145.984C613.929 124.242 641.718 116.783 663.459 129.328C685.201 141.866 692.653 169.662 680.115 191.404L672.545 204.511C666.542 214.972 656.614 222.608 644.956 225.706C641.089 226.726 637.105 227.236 633.105 227.221ZM640.779 153.539C635.36 153.524 630.348 156.415 627.635 161.109L620.065 174.216C615.895 181.454 618.379 190.702 625.609 194.886C632.847 199.041 642.08 196.564 646.257 189.341L653.827 176.227C656.533 171.555 656.533 165.789 653.842 161.109C651.151 156.43 646.168 153.539 640.764 153.517L640.779 153.539Z" fill="#E94F4F"/>
<path d="M567.082 265.995L582.222 239.774L608.444 254.906L593.304 281.135L567.082 265.995Z" fill="#E94F4F"/>
<path d="M679.945 959.998L664.716 924.21C646.361 881.104 652.378 831.485 680.492 794.004L574.512 688.024C553.606 667.125 553.606 633.23 574.512 612.324C595.411 591.417 629.313 591.417 650.212 612.324L786.472 748.584V959.998H679.945Z" fill="#FEB784"/>
<path d="M691.934 321.5C640.838 291.999 575.271 309.568 545.77 360.665C516.269 411.762 533.838 477.329 584.934 506.829C636.031 536.33 701.598 518.762 731.099 467.665C760.6 416.568 743.031 351.001 691.934 321.5ZM696.073 385.666C704.606 390.592 707.522 401.501 702.6 410.027C697.674 418.559 686.772 421.481 678.239 416.554C669.706 411.628 666.785 400.726 671.712 392.193C676.634 383.668 687.54 380.739 696.073 385.666ZM634.296 349.999C642.829 354.925 645.746 365.835 640.824 374.36C635.897 382.893 624.996 385.814 616.463 380.888C607.93 375.961 605.009 365.06 609.935 356.527C614.857 348.001 625.763 345.072 634.296 349.999ZM598.309 483.663C569.514 467.038 558.838 427.196 575.463 398.401C577.924 394.138 583.373 392.672 587.644 395.137L680.308 448.637C684.579 451.102 686.033 456.555 683.572 460.817C666.947 489.613 627.105 500.288 598.309 483.663Z" fill="#E94F4F"/>
</svg>
