<svg width="1024" height="1024" viewBox="0 0 1024 1024" fill="none" xmlns="http://www.w3.org/2000/svg">
<rect width="1024" height="1024" fill="white"/>
<rect width="1024" height="1024" fill="#35363A"/>
<path d="M597.619 870.998L585.41 842.32C570.707 807.777 575.523 768.016 598.052 737.981L519.98 659.559C508.689 648.221 506.124 630.846 513.659 616.729L578.52 495.116C583.449 485.862 592.128 479.186 602.335 476.793C612.542 474.394 623.288 476.52 631.818 482.622L682.978 519.161V870.998H597.619Z" fill="#F4A876"/>
<path d="M707.242 531.293L762.152 597.535C781.505 619.655 792.169 648.043 792.169 677.426V870.998H707.242V531.293Z" fill="#FEB784"/>
<path d="M167.805 426.007L289.128 215.871C302.528 192.661 332.207 184.711 355.417 198.111L733.658 416.493C756.868 429.893 764.818 459.572 751.418 482.782L630.095 692.917C616.694 716.127 587.015 724.077 563.805 710.677L185.565 492.296C162.355 478.896 154.405 449.217 167.805 426.007V426.007Z" fill="#CCCCCA"/>
<path d="M262.352 492.728C260.225 492.728 258.134 492.171 256.285 491.111L203.752 460.78C200.961 459.175 198.929 456.521 198.094 453.411C197.259 450.301 197.697 446.983 199.315 444.199L211.447 423.187C216.269 414.816 224.219 408.703 233.549 406.203C242.879 403.697 252.82 405.006 261.185 409.84L271.706 415.906C289.11 425.971 295.076 448.221 285.052 465.65L272.92 486.662C270.74 490.436 266.706 492.746 262.352 492.728ZM226.405 445.822L257.95 464.021L264.016 453.518C267.363 447.712 265.379 440.295 259.573 436.942L249.052 430.876C243.253 427.535 235.842 429.519 232.495 435.319L226.405 445.822Z" fill="#419BC2"/>
<path d="M254.449 280.869L464.584 159.546C487.801 146.146 517.48 154.096 530.88 177.306L749.261 555.552C762.661 578.768 754.711 608.447 731.495 621.847L521.36 743.17C498.15 756.571 468.471 748.621 455.071 725.404L236.689 347.158C223.283 323.948 231.239 294.269 254.449 280.869V280.869Z" fill="#D6D6D4"/>
<path d="M300.81 389.722C296.48 389.704 292.487 387.4 290.307 383.656L259.976 331.11C256.623 325.311 258.614 317.888 264.413 314.541L306.444 290.276C312.243 286.923 319.666 288.914 323.013 294.713L353.344 347.259C356.697 353.065 354.706 360.481 348.907 363.834L306.876 388.135C305.028 389.189 302.937 389.734 300.81 389.722ZM287.055 329.499L305.253 361.044L326.265 348.912L308.067 317.367L287.055 329.499Z" fill="#E94F4F"/>
<path d="M329.518 403.051L350.53 390.919L362.663 411.931L341.644 424.063L329.518 403.051Z" fill="#E94F4F"/>
<path d="M428.199 179.456H670.846C697.652 179.456 719.375 201.186 719.375 227.986V664.749C719.375 691.555 697.652 713.278 670.846 713.278H428.199C401.399 713.278 379.67 691.555 379.67 664.749V227.986C379.67 201.186 401.399 179.456 428.199 179.456Z" fill="#E0E0DE"/>
<path d="M476.729 300.78H428.199C424.171 300.785 420.403 298.789 418.146 295.454C415.889 292.113 415.433 287.877 416.932 284.133L441.197 223.472C443.033 218.863 447.5 215.83 452.464 215.83C457.434 215.83 461.901 218.863 463.737 223.472L488.002 284.133C489.501 287.877 489.045 292.113 486.788 295.454C484.525 298.789 480.757 300.785 476.729 300.78ZM446.119 276.515H458.809L452.464 260.651L446.119 276.515Z" fill="#419BC2"/>
<path d="M440.332 325.044H464.596V349.309H440.332V325.044Z" fill="#419BC2"/>
<path d="M630.551 161.708L840.692 283.031C863.902 296.431 871.852 326.11 858.452 349.321L640.07 727.567C626.67 750.783 596.991 758.733 573.781 745.333L363.64 624.009C340.43 610.609 332.48 580.93 345.88 557.714L564.261 179.468C577.661 156.258 607.34 148.302 630.551 161.708V161.708Z" fill="#EBEBE9"/>
<path d="M609.046 283.796C602.678 283.801 596.422 282.131 590.907 278.944C582.537 274.122 576.429 266.166 573.923 256.836C571.423 247.505 572.727 237.565 577.561 229.2L583.627 218.697C593.68 201.275 615.948 195.297 633.37 205.35C650.793 215.397 656.764 237.671 646.717 255.094L640.651 265.597C635.841 273.979 627.885 280.099 618.543 282.581C615.444 283.399 612.251 283.807 609.046 283.796V283.796ZM615.196 224.751C610.853 224.739 606.837 227.056 604.663 230.817L598.597 241.321C595.255 247.12 597.246 254.531 603.04 257.884C608.839 261.213 616.238 259.229 619.585 253.441L625.651 242.932C627.82 239.188 627.82 234.567 625.663 230.817C623.507 227.068 619.514 224.751 615.184 224.733L615.196 224.751Z" fill="#E94F4F"/>
<path d="M556.139 314.867L568.272 293.854L589.284 305.981L577.152 326.999L556.139 314.867Z" fill="#E94F4F"/>
<path d="M646.581 870.998L634.377 842.32C619.668 807.777 624.49 768.016 647.019 737.981L562.093 653.055C545.34 636.308 545.34 609.146 562.093 592.393C578.84 575.64 606.008 575.64 622.755 592.393L731.945 701.584V870.998H646.581Z" fill="#FEB784"/>
<path d="M656.189 359.345C615.242 335.705 562.701 349.783 539.061 390.729C515.421 431.675 529.499 484.216 570.445 507.857C611.391 531.497 663.933 517.418 687.573 476.472C711.213 435.526 697.135 382.985 656.189 359.345ZM659.505 410.763C666.342 414.711 668.679 423.453 664.735 430.285C660.788 437.122 652.052 439.463 645.214 435.515C638.376 431.568 636.035 422.832 639.983 415.994C643.928 409.163 652.667 406.816 659.505 410.763ZM610.001 382.182C616.838 386.13 619.176 394.872 615.232 401.704C611.284 408.541 602.548 410.882 595.71 406.934C588.873 402.987 586.532 394.251 590.479 387.413C594.424 380.582 603.163 378.234 610.001 382.182ZM581.163 489.293C558.088 475.97 549.533 444.043 562.856 420.968C564.828 417.553 569.194 416.377 572.616 418.353L646.872 461.225C650.294 463.2 651.459 467.569 649.487 470.985C636.165 494.06 604.238 502.615 581.163 489.293Z" fill="#E94F4F"/>
</svg>
