<svg width="1024" height="1024" viewBox="0 0 1024 1024" fill="none" xmlns="http://www.w3.org/2000/svg">
<rect width="1024" height="1024" fill="white"/>
<rect width="1024" height="1024" fill="url(#paint0_linear)"/>
<g clip-path="url(#clip0)">
<path fill-rule="evenodd" clip-rule="evenodd" d="M354.023 194.055C352.664 198.602 351.992 203.32 352.023 208.054V505.912L551.659 160.057H400.02C399.434 160.026 398.856 160.026 398.278 160.057C382.74 160.612 368.452 168.705 359.991 181.736C357.452 185.556 355.445 189.704 354.023 194.055ZM259.646 177.72C247.358 181.001 236.882 189.04 230.523 200.055L211.93 232.201L297.019 183.134L296.026 182.556C285.019 176.173 271.934 174.431 259.646 177.72ZM88.0391 542.84L271.419 648.701V648.685C272.434 645.748 273.614 642.865 274.973 640.06L125.716 381.247L70.4386 477.148C57.166 500.147 65.0483 529.551 88.0391 542.84ZM144.481 343.07C145.434 349.062 147.489 354.811 150.543 360.046L293.292 607.633L320.025 561.331V208.039C320.025 207.817 320.048 207.603 320.072 207.388C320.095 207.172 320.119 206.954 320.119 206.726L177.87 288.753C177.307 289.19 176.713 289.589 176.096 289.94L167.933 294.581C151.184 304.205 141.88 322.985 144.387 342.148L144.481 343.07ZM352.023 784.021C352.023 810.535 373.506 832.018 400.02 832.018H459.212L352.023 770.186V784.021ZM442.158 864.016C456.65 883.234 483.234 888.562 504.014 876.422L520.029 867.219L514.552 864.016H442.158ZM622.054 1011.93L627.108 1024.01H657.044C641.646 987.126 641.076 945.73 655.442 908.435C645.56 912.724 634.904 914.958 624.132 915.005C623.846 915.005 623.575 914.977 623.308 914.95C623.048 914.923 622.792 914.896 622.53 914.896C609.164 945.824 608.992 980.869 622.054 1011.93ZM863.992 800.66C863.961 766.631 851.883 733.711 829.893 707.744C823.526 721.907 813.128 733.891 799.996 742.187V784.021C799.949 791.505 798.84 798.95 796.699 806.121L811.862 821.284L789.239 843.908L645.247 699.916C629.186 684.62 603.945 684.62 587.876 699.916C572.072 715.775 572.072 741.43 587.876 757.288L699.869 869.281C705.502 874.914 706.134 883.827 701.361 890.194C675.168 925.27 669.559 971.619 686.628 1011.93L691.745 1024.01H863.992V800.66ZM756.764 764.983C756.624 765.225 756.444 765.452 756.303 765.67L767.967 777.466V745.468L756.764 764.983ZM799.996 690.011V696.268C802.136 691.925 803.597 687.276 804.332 682.495L799.996 690.011ZM796.793 631.389L953.487 360.046C959.9 349.046 961.666 335.938 958.393 323.634C955.112 311.322 947.065 300.83 936.035 294.471L658.911 134.481C635.912 121.216 606.515 129.09 593.219 152.073L305.237 650.849C301.151 657.895 298.948 665.879 298.839 674.027C298.573 691.456 307.752 707.666 322.837 716.392L599.922 876.383C617.827 886.89 640.482 884.499 655.794 870.5L565.19 779.912C536.856 751.577 536.856 705.635 565.19 677.293C593.532 648.958 639.474 648.958 667.809 677.293L732.812 742.297L796.379 632.131L796.793 631.389ZM545.376 363.36C585.286 294.234 673.987 270.467 743.113 310.376C812.238 350.286 836.006 438.987 796.096 508.113C756.186 577.238 667.485 601.006 598.36 561.096C529.234 521.186 505.467 432.485 545.376 363.36ZM757.541 430.138C764.2 418.605 760.255 403.847 748.711 397.182C737.167 390.517 722.414 394.48 715.755 406.012C709.09 417.556 713.042 432.304 724.585 438.969C736.129 445.634 750.877 441.681 757.541 430.138ZM673.969 381.887C680.627 370.354 676.681 355.596 665.138 348.931C653.594 342.266 638.84 346.228 632.182 357.762C625.517 369.305 629.469 384.053 641.012 390.718C652.556 397.383 667.304 393.431 673.969 381.887ZM585.547 414.41C563.056 453.366 577.498 507.265 616.454 529.756C655.409 552.247 709.309 537.805 731.8 498.849C735.129 493.083 733.161 485.707 727.385 482.371L602.025 409.995C596.248 406.66 588.876 408.644 585.547 414.41Z" fill="white"/>
</g>
<defs>
<linearGradient id="paint0_linear" x1="512" y1="0" x2="512" y2="1024" gradientUnits="userSpaceOnUse">
<stop stop-color="#4B4D48"/>
<stop offset="1" stop-color="#252623"/>
</linearGradient>
<clipPath id="clip0">
<rect width="896" height="896" fill="white" transform="translate(64 128)"/>
</clipPath>
</defs>
</svg>
