<svg width="1024" height="1024" viewBox="0 0 1024 1024" fill="none" xmlns="http://www.w3.org/2000/svg">
<rect width="1024" height="1024" fill="white"/>
<rect width="1024" height="1024" fill="url(#paint0_linear)"/>
<g clip-path="url(#clip0)">
<path d="M352.023 208.054C351.992 203.32 352.664 198.602 354.023 194.055C355.445 189.704 357.452 185.556 359.991 181.736C368.452 168.705 382.74 160.612 398.278 160.057C398.856 160.026 399.434 160.026 400.02 160.057H551.659L352.023 505.912V208.054ZM230.523 200.055C236.882 189.04 247.358 181.001 259.646 177.72C271.934 174.431 285.019 176.173 296.026 182.556L297.019 183.134L211.93 232.201L230.523 200.055ZM271.419 648.701L88.0391 542.84C65.0483 529.551 57.166 500.147 70.4386 477.148L125.716 381.247L274.973 640.06C273.614 642.865 272.434 645.748 271.419 648.685V648.701ZM150.543 360.046C147.489 354.811 145.434 349.062 144.481 343.07L144.387 342.148C141.88 322.985 151.184 304.205 167.933 294.581L176.096 289.94C176.713 289.589 177.307 289.19 177.87 288.753L320.119 206.726C320.119 207.179 320.025 207.593 320.025 208.039V561.331L293.292 607.633L150.543 360.046ZM400.02 832.018C373.506 832.018 352.023 810.535 352.023 784.021V770.186L459.212 832.018H400.02ZM504.014 876.422C483.234 888.562 456.65 883.234 442.158 864.016H514.552L520.029 867.219L504.014 876.422ZM627.108 1024.01L622.054 1011.93C608.992 980.869 609.164 945.824 622.53 914.896C623.061 914.896 623.569 915.005 624.132 915.005C634.904 914.958 645.56 912.724 655.442 908.435C641.076 945.73 641.646 987.126 657.044 1024.01H627.108ZM829.893 707.744C851.883 733.711 863.961 766.631 863.992 800.66V1024.01H691.745L686.628 1011.93C669.559 971.619 675.168 925.27 701.361 890.194C706.134 883.827 705.502 874.914 699.869 869.281L587.876 757.288C572.072 741.43 572.072 715.775 587.876 699.916C603.945 684.62 629.186 684.62 645.247 699.916L789.239 843.908L811.862 821.284L796.699 806.121C798.84 798.95 799.949 791.505 799.996 784.021V742.187C813.128 733.891 823.526 721.907 829.893 707.744ZM756.303 765.67C756.444 765.452 756.624 765.225 756.764 764.983L767.967 745.468V777.466L756.303 765.67ZM799.996 696.268V690.011L804.332 682.495C803.597 687.276 802.136 691.925 799.996 696.268ZM953.487 360.046L796.793 631.389L796.379 632.131L732.812 742.297L667.809 677.293C639.474 648.958 593.532 648.958 565.19 677.293C536.856 705.635 536.856 751.577 565.19 779.912L655.794 870.5C640.482 884.499 617.827 886.89 599.922 876.383L322.837 716.392C307.752 707.666 298.573 691.456 298.839 674.027C298.948 665.879 301.151 657.895 305.237 650.849L593.219 152.073C606.515 129.09 635.912 121.216 658.911 134.481L936.035 294.471C947.065 300.83 955.112 311.322 958.393 323.634C961.666 335.938 959.9 349.046 953.487 360.046Z" fill="white"/>
</g>
<defs>
<linearGradient id="paint0_linear" x1="512" y1="0" x2="512" y2="1024" gradientUnits="userSpaceOnUse">
<stop stop-color="#4B4D48"/>
<stop offset="1" stop-color="#252623"/>
</linearGradient>
<clipPath id="clip0">
<rect width="896" height="896" fill="white" transform="translate(64 128)"/>
</clipPath>
</defs>
</svg>
