<svg height="448pt" viewBox="0 0 448.02685 448" width="448pt" xmlns="http://www.w3.org/2000/svg"><path d="m118.667969 118.667969-20-34.648438c-2.210938-3.824219-7.101563-5.136719-10.929688-2.925781l-27.710937 16c-3.828125 2.207031-5.136719 7.101562-2.929688 10.925781l20 34.648438c2.203125 3.832031 7.089844 5.152343 10.921875 2.953125l27.710938-16c1.84375-1.058594 3.191406-2.8125 3.742187-4.867188.550782-2.054687.261719-4.246094-.804687-6.085937zm-31.714844 9.066406-12-20.800781 13.855469-8 12 20.800781zm0 0"/><path d="m102.945312 155.457031 13.855469-8 8 13.855469-13.855469 8zm0 0"/><path d="m275.296875 73.621094c3.636719 2.101562 7.761719 3.203125 11.960937 3.199218 2.109376.007813 4.210938-.261718 6.25-.800781 6.15625-1.636719 11.40625-5.667969 14.574219-11.199219l4-6.925781c6.628907-11.488281 2.6875-26.175781-8.800781-32.800781-11.484375-6.628906-26.171875-2.6875-32.796875 8.800781l-4 6.925781c-3.1875 5.519532-4.046875 12.074219-2.394531 18.226563 1.65625 6.152344 5.6875 11.398437 11.207031 14.574219zm5.082031-24.800782 4-6.925781c1.382813-2.570312 4.050782-4.179687 6.964844-4.210937 2.917969-.027344 5.617188 1.53125 7.046875 4.070312 1.433594 2.542969 1.371094 5.660156-.164063 8.140625l-4 6.925781c-2.207031 3.816407-7.089843 5.125-10.910156 2.929688-3.832031-2.207031-5.144531-7.101562-2.9375-10.929688zm0 0"/><path d="m252.378906 97.308594 8-13.855469 13.859375 7.996094-8 13.859375zm0 0"/><path d="m144.019531 40.019531c-.015625-2.367187.320313-4.726562 1-7 .710938-2.175781 1.714844-4.25 2.984375-6.160156 4.230469-6.515625 11.375-10.5625 19.144532-10.839844.289062-.015625.578124-.015625.871093 0h75.824219l-36 62.402344c-.078125-.476563-.199219-.941406-.359375-1.394531l-16-40c-1.214844-3.042969-4.160156-5.039063-7.433594-5.039063-3.277343 0-6.21875 1.996094-7.433593 5.039063l-16 40c-.992188 2.464844-.699219 5.257812.785156 7.460937 1.480468 2.203125 3.960937 3.527344 6.617187 3.53125h32c.859375-.015625 1.714844-.171875 2.527344-.460937l-10.527344 18.238281v-1.777344h-16v16h7.789063l-39.789063 68.9375zm44.183594 32h-8.367187l4.183593-10.460937zm-104.9375-36c3.179687-5.507812 8.417969-9.527343 14.5625-11.167969 6.144531-1.644531 12.6875-.773437 18.191406 2.417969l.496094.289063-42.546875 24.535156zm20.449219 224.335938-91.695313-52.933594c-11.496093-6.644531-15.4375-21.347656-8.800781-32.847656l27.640625-47.953125 17.464844 30.289062c-9.421875-1.054687-18.570313 3.59375-23.273438 11.824219l-8 13.855469c-1.058593 1.84375-1.34375 4.03125-.785156 6.082031.554687 2.054687 1.90625 3.800781 3.753906 4.851563l34.640625 20c3.828125 2.210937 8.71875.894531 10.925782-2.933594l6.871093-11.898438 32.183594 55.824219c.128906.273437.265625.539063.417969.800781l.433594.71875c-.679688 1.402344-1.269532 2.84375-1.777344 4.3125zm-53.839844-86.542969 6.933594 4c3.828125 2.210938 5.140625 7.101562 2.929687 10.929688l-4 6.925781-20.800781-12 4-6.925781c2.210938-3.824219 7.097656-5.132813 10.921875-2.929688zm-6.601562-57.792969c-1.527344-2.617187-2.554688-5.492187-3.03125-8.488281l-.046876-.460938c-1.253906-9.582031 3.398438-18.972656 11.773438-23.785156l4.082031-2.320312c.308594-.175782.605469-.375.886719-.59375l71.128906-41.015625c0 .226562-.046875.433593-.046875.65625v176.65625l-13.367187 23.152343zm124.746093 236c-13.257812 0-24-10.742187-24-24v-6.917969l53.597657 30.917969zm52 22.203125c-10.390625 6.070313-23.683593 3.40625-30.929687-6.203125h36.199218l2.738282 1.601563zm61.550781 73.796875-2.527343-6.039062c-6.53125-15.53125-6.445313-33.054688.238281-48.519531.265625 0 .519531.054687.800781.054687 5.386719-.023437 10.714844-1.140625 15.65625-3.285156-7.183593 18.648437-6.898437 39.347656.800781 57.789062zm101.398438-158.140625c10.996094 12.984375 17.035156 29.445313 17.050781 46.460938v111.679687h-86.128906l-2.558594-6.039062c-8.535156-20.15625-5.730469-43.332031 7.367188-60.871094 2.386719-3.183594 2.070312-7.640625-.746094-10.457031l-56-56c-7.902344-7.929688-7.902344-20.757813 0-28.6875 8.035156-7.648438 20.65625-7.648438 28.6875 0l72 72 11.3125-11.3125-7.582031-7.582032c1.070312-3.585937 1.625-7.308593 1.648437-11.050781v-20.917969c6.566407-4.148437 11.765625-10.140624 14.949219-17.222656zm-36.796875 28.964844c.070313-.109375.160156-.222656.230469-.34375l5.601562-9.757812v16zm21.847656-34.703125v-3.128906l2.167969-3.757813c-.367188 2.390625-1.097656 4.714844-2.167969 6.886719zm76.75-168.121094-78.351562 135.679688-.207031.371093-31.785157 55.085938-32.503906-32.503906c-14.167969-14.167969-37.140625-14.167969-51.3125 0-14.167969 14.171875-14.167969 37.144531 0 51.3125l45.304687 45.296875c-7.65625 7-18.984374 8.195312-27.9375 2.941406l-138.550781-80c-7.542969-4.363281-12.132812-12.46875-12-21.183594.054688-4.074219 1.15625-8.066406 3.199219-11.589843l144-249.402344c6.648438-11.492188 21.347656-15.429688 32.847656-8.796875l138.570313 80c5.515625 3.179687 9.539062 8.425781 11.179687 14.582031 1.636719 6.152344.753906 12.707031-2.453125 18.207031zm0 0"/><path d="m326.273438 123.726562c-1.308594-3.722656-5.136719-5.933593-9.015626-5.210937l-62.582031 11.714844c-12.308593 2.300781-21.882812 12.023437-23.992187 24.363281-2.113282 12.34375 3.683594 24.695312 14.527344 30.957031l2.984374 1.726563c4.871094 2.789062 10.429688 4.152344 16.039063 3.9375-7.171875 5.785156-15.464844 10.023437-24.359375 12.4375-3.125.839844-5.4375 3.476562-5.859375 6.683594-.421875 3.210937 1.128906 6.355468 3.929687 7.972656l41.601563 24c1.21875.695312 2.597656 1.0625 4 1.0625 2.484375 0 4.828125-1.152344 6.34375-3.125s2.023437-4.535156 1.382813-6.9375c-2.355469-8.90625-2.835938-18.207032-1.40625-27.3125 2.613281 4.964844 6.570312 9.09375 11.421874 11.914062l2.984376 1.726563c10.847656 6.277343 24.453124 5.128906 34.097656-2.875 9.640625-8 13.273437-21.164063 9.101562-32.980469zm-53.214844 96.375-12.65625-7.28125c4.738281-2.433593 9.230468-5.320312 13.417968-8.617187-.769531 5.261719-1.023437 10.585937-.761718 15.898437zm58.199218-19.417968c-3.855468 6.644531-12.355468 8.921875-19.015624 5.089844l-2.976563-1.71875c-2.382813-1.375-4.304687-3.421876-5.519531-5.890626l-9.847656-19.902343c-.207032-.363281-.445313-.707031-.710938-1.03125-.183594-.300781-.382812-.585938-.601562-.859375-1.09375-1.195313-2.527344-2.035156-4.113282-2.398438-.238281-.035156-.484375-.054687-.726562-.054687-.503906-.101563-1.019532-.144531-1.535156-.128907l-22.191407 1.433594c-2.742187.167969-5.476562-.472656-7.855469-1.839844l-2.984374-1.722656c-5.035157-2.917968-7.726563-8.660156-6.746094-14.394531.980468-5.738281 5.425781-10.261719 11.144531-11.339844l55.855469-10.449219 18.863281 53.601563c1.367187 3.835937.988281 8.074219-1.039063 11.605469zm0 0"/></svg>