<svg width="1024" height="1024" viewBox="0 0 1024 1024" fill="none" xmlns="http://www.w3.org/2000/svg">
<g clip-path="url(#clip0)">
<path fill-rule="evenodd" clip-rule="evenodd" d="M331.455 75.4916C329.901 80.6878 329.134 86.0803 329.169 91.4907V431.899L557.325 36.6368H384.023C383.353 36.6011 382.693 36.6011 382.032 36.6368C364.274 37.2707 347.945 46.5201 338.276 61.4121C335.374 65.7779 333.08 70.5187 331.455 75.4916ZM223.595 56.8231C209.552 60.5729 197.579 69.7598 190.312 82.3484L169.063 119.087L266.307 63.0102L265.173 62.3496C252.594 55.0553 237.639 53.0644 223.595 56.8231ZM27.4733 474.102L237.05 595.086V595.068C238.211 591.711 239.559 588.417 241.112 585.212L70.5332 289.426L7.35845 399.026C-7.81027 425.31 1.19812 458.916 27.4733 474.102ZM91.9783 245.794C93.0675 252.642 95.4156 259.213 98.9065 265.195L262.048 548.152L292.6 495.235V91.4729C292.6 91.2195 292.627 90.975 292.653 90.7295C292.68 90.4818 292.707 90.233 292.707 89.9729L130.137 183.717C129.494 184.217 128.815 184.673 128.11 185.075L118.78 190.378C99.6386 201.377 89.0053 222.84 91.8712 244.741L91.9783 245.794ZM329.169 749.738C329.169 780.04 353.721 804.592 384.023 804.592H451.671L329.169 733.926V749.738ZM432.181 841.161C448.742 863.124 479.125 869.213 502.873 855.339L521.176 844.822L514.917 841.161H432.181ZM637.776 1010.2L643.552 1024.01H677.764C660.167 981.858 659.515 934.549 675.934 891.926C664.64 896.828 652.462 899.381 640.15 899.435C639.824 899.435 639.515 899.402 639.209 899.371C638.912 899.34 638.619 899.31 638.32 899.31C623.044 934.656 622.848 974.707 637.776 1010.2ZM914.277 768.755C914.241 729.864 900.438 692.241 875.306 662.565C868.029 678.751 856.146 692.447 841.138 701.928V749.738C841.085 758.291 839.817 766.8 837.371 774.995L854.7 792.325L828.844 818.18L664.283 653.619C645.927 636.137 617.08 636.137 598.716 653.619C580.654 671.743 580.654 701.062 598.716 719.186L726.708 847.179C733.145 853.616 733.868 863.803 728.413 871.079C698.477 911.166 692.067 964.136 711.575 1010.2L717.423 1024.01H914.277V768.755ZM791.731 727.98C791.57 728.257 791.365 728.516 791.204 728.766L804.533 742.247V705.678L791.731 727.98ZM841.138 642.298V649.449C843.585 644.485 845.254 639.173 846.093 633.709L841.138 642.298ZM837.478 575.302L1016.56 265.195C1023.89 252.624 1025.9 237.643 1022.16 223.581C1018.41 209.511 1009.22 197.52 996.611 190.253L679.898 7.40634C653.614 -7.75349 620.018 1.24598 604.822 27.5123L275.699 597.542C271.03 605.595 268.512 614.719 268.387 624.031C268.084 643.949 278.574 662.475 295.814 672.448L612.482 855.294C632.946 867.303 658.837 864.571 676.336 848.571L572.788 745.042C540.407 712.66 540.407 660.154 572.788 627.763C605.179 595.381 657.685 595.381 690.067 627.763L764.357 702.053L837.005 576.15L837.478 575.302ZM550.145 268.983C595.756 189.982 697.128 162.819 776.129 208.43C855.13 254.041 882.292 355.414 836.681 434.414C791.07 513.415 689.698 540.578 610.697 494.967C531.696 449.356 504.533 347.983 550.145 268.983ZM792.619 345.301C800.229 332.12 795.72 315.253 782.527 307.636C769.334 300.02 752.473 304.548 744.862 317.728C737.245 330.921 741.762 347.776 754.955 355.393C768.148 363.01 785.002 358.493 792.619 345.301ZM697.107 290.157C704.717 276.976 700.207 260.109 687.015 252.492C673.822 244.876 656.96 249.404 649.351 262.585C641.734 275.778 646.25 292.632 659.443 300.249C672.636 307.866 689.49 303.349 697.107 290.157ZM596.054 327.326C570.35 371.846 586.855 433.446 631.376 459.15C675.896 484.854 737.496 468.348 763.2 423.828C767.005 417.237 764.756 408.808 758.154 404.996L614.886 322.28C608.283 318.468 599.859 320.736 596.054 327.326Z" fill="white"/>
</g>
<defs>
<clipPath id="clip0">
<rect width="1024" height="1024" fill="white"/>
</clipPath>
</defs>
</svg>
