<svg width="1024" height="1024" viewBox="0 0 1024 1024" fill="none" xmlns="http://www.w3.org/2000/svg">
<path d="M634.109 1024L616.696 983.097C595.727 933.833 602.595 877.125 634.726 834.29L523.381 722.447C507.277 706.276 503.619 681.496 514.366 661.363L606.87 487.92C613.9 474.723 626.277 465.201 640.834 461.788C655.391 458.366 670.717 461.399 682.883 470.102L755.846 522.213V1024H634.109Z" fill="#F4A876"/>
<path d="M790.452 539.516L868.762 633.989C896.364 665.537 911.572 706.023 911.572 747.928V1024H790.452V539.516Z" fill="#FEB784"/>
<path d="M21.1147 389.358L194.144 89.6659C213.255 56.564 255.582 45.2258 288.684 64.3368L828.124 375.789C861.226 394.9 872.564 437.228 853.453 470.33L680.424 770.021C661.313 803.123 618.986 814.461 585.884 795.35L46.4438 483.898C13.3419 464.787 2.00374 422.459 21.1147 389.358V389.358Z" fill="#CCCCCA"/>
<path d="M155.956 484.515C152.923 484.515 149.94 483.721 147.304 482.209L72.3813 438.951C68.4019 436.662 65.504 432.877 64.3128 428.441C63.1215 424.006 63.7467 419.274 66.0532 415.303L83.3561 385.336C90.2333 373.398 101.571 364.679 114.878 361.114C128.185 357.54 142.362 359.407 154.291 366.301L169.296 374.953C194.118 389.307 202.626 421.04 188.331 445.896L171.028 475.864C167.919 481.245 162.165 484.54 155.956 484.515ZM104.689 417.618L149.678 443.573L158.33 428.593C163.103 420.314 160.273 409.736 151.993 404.954L136.988 396.302C128.717 391.537 118.148 394.368 113.374 402.639L104.689 417.618Z" fill="#419BC2"/>
<path d="M144.685 182.365L444.377 9.33578C477.487 -9.77513 519.815 1.56299 538.926 34.6649L850.378 574.113C869.489 607.224 858.151 649.552 825.041 668.662L525.349 841.691C492.247 860.802 449.919 849.464 430.808 816.354L119.356 276.906C100.237 243.804 111.583 201.476 144.685 182.365V182.365Z" fill="#D6D6D4"/>
<path d="M210.804 337.609C204.628 337.584 198.934 334.297 195.825 328.958L152.568 254.018C147.786 245.747 150.624 235.161 158.896 230.387L218.839 195.781C227.11 190.999 237.697 193.838 242.47 202.109L285.727 277.049C290.509 285.329 287.671 295.907 279.399 300.689L219.456 335.345C216.82 336.849 213.838 337.626 210.804 337.609ZM191.187 251.72L217.141 296.709L247.108 279.406L221.154 234.417L191.187 251.72Z" fill="#E94F4F"/>
<path d="M251.747 356.619L281.714 339.316L299.017 369.283L269.041 386.586L251.747 356.619Z" fill="#E94F4F"/>
<path d="M392.485 37.7318H738.543C776.773 37.7318 807.755 68.7216 807.755 106.943V729.848C807.755 768.078 776.773 799.059 738.543 799.059H392.485C354.263 799.059 323.273 768.078 323.273 729.848V106.943C323.273 68.7216 354.263 37.7318 392.485 37.7318Z" fill="#E0E0DE"/>
<path d="M461.697 210.761H392.485C386.74 210.769 381.366 207.922 378.148 203.165C374.929 198.4 374.278 192.36 376.416 187.02L411.021 100.505C413.64 93.9324 420.011 89.6067 427.091 89.6067C434.179 89.6067 440.55 93.9324 443.169 100.505L477.774 187.02C479.912 192.36 479.261 198.4 476.042 203.165C472.815 207.922 467.442 210.769 461.697 210.761ZM418.042 176.155H436.139L427.091 153.529L418.042 176.155Z" fill="#419BC2"/>
<path d="M409.788 245.367H444.394V279.973H409.788V245.367Z" fill="#419BC2"/>
<path d="M681.075 12.4195L980.775 185.448C1013.88 204.559 1025.22 246.887 1006.1 279.989L694.652 819.438C675.541 852.548 633.213 863.886 600.111 844.775L300.411 671.746C267.309 652.635 255.971 610.307 275.082 577.197L586.534 37.7486C605.645 4.64671 647.973 -6.69987 681.075 12.4195V12.4195Z" fill="#EBEBE9"/>
<path d="M650.406 186.538C641.324 186.547 632.402 184.164 624.536 179.619C612.598 172.742 603.888 161.395 600.314 148.088C596.749 134.782 598.607 120.605 605.501 108.675L614.153 93.6959C628.49 68.8483 660.249 60.3236 685.096 74.661C709.944 88.9899 718.46 120.757 704.131 145.605L695.48 160.584C688.62 172.539 677.273 181.266 663.949 184.806C659.531 185.972 654.977 186.555 650.406 186.538V186.538ZM659.176 102.33C652.983 102.314 647.255 105.617 644.154 110.982L635.503 125.961C630.738 134.233 633.576 144.802 641.839 149.584C650.11 154.332 660.663 151.502 665.436 143.247L674.088 128.259C677.18 122.92 677.18 116.33 674.105 110.982C671.029 105.634 665.335 102.33 659.159 102.305L659.176 102.33Z" fill="#E94F4F"/>
<path d="M574.951 230.852L592.254 200.884L622.222 218.179L604.919 248.155L574.951 230.852Z" fill="#E94F4F"/>
<path d="M703.937 1024L686.533 983.097C665.555 933.833 672.432 877.125 704.562 834.291L583.442 713.17C559.549 689.286 559.549 650.549 583.442 626.656C607.327 602.763 646.072 602.763 669.957 626.656L825.683 782.382V1024H703.937Z" fill="#FEB784"/>
<path d="M717.639 294.286C659.243 260.57 584.309 280.649 550.594 339.045C516.879 397.442 536.957 472.375 595.354 506.091C653.75 539.806 728.684 519.728 762.399 461.331C796.114 402.935 776.036 328.001 717.639 294.286ZM722.369 367.618C732.121 373.248 735.454 385.716 729.829 395.459C724.199 405.211 711.74 408.549 701.988 402.919C692.236 397.289 688.897 384.83 694.528 375.078C700.153 365.335 712.617 361.988 722.369 367.618ZM651.767 326.856C661.519 332.486 664.852 344.954 659.227 354.697C653.597 364.449 641.138 367.788 631.386 362.157C621.635 356.527 618.296 344.068 623.926 334.316C629.551 324.573 642.015 321.226 651.767 326.856ZM610.639 479.615C577.73 460.615 565.53 415.081 584.53 382.172C587.342 377.301 593.57 375.625 598.45 378.442L704.352 439.585C709.233 442.403 710.895 448.634 708.082 453.505C689.082 486.415 643.549 498.615 610.639 479.615Z" fill="#E94F4F"/>
</svg>
