<svg height="480pt" viewBox="0 0 480.00412 480" width="480pt" xmlns="http://www.w3.org/2000/svg"><path d="m93.074219 158.5625c2.199219 3.828125 7.089843 5.148438 10.917969 2.949219l27.714843-16c3.824219-2.207031 5.136719-7.101563 2.925781-10.925781l-20-34.648438c-2.207031-3.828125-7.101562-5.136719-10.925781-2.929688l-27.714843 16c-3.824219 2.210938-5.136719 7.101563-2.925782 10.929688zm11.71875-43.714844 12 20.800782-13.855469 8-12-20.800782zm0 0"/><path d="m118.921875 171.347656 13.855469-8 8 13.859375-13.859375 7.996094zm0 0"/><path d="m291.273438 89.511719c3.636718 2.101562 7.761718 3.207031 11.960937 3.199219 2.109375.007812 4.207031-.261719 6.246094-.796876 6.160156-1.640624 11.40625-5.671874 14.578125-11.203124l4-6.925782c6.625-11.488281 2.6875-26.171875-8.800782-32.800781-11.488281-6.628906-26.171874-2.6875-32.800781 8.800781l-4 6.925782c-3.183593 5.519531-4.042969 12.078124-2.390625 18.230468s5.6875 11.394532 11.207032 14.570313zm5.082031-24.800781 4-6.925782c1.378906-2.566406 4.050781-4.179687 6.964843-4.210937 2.914063-.027344 5.617188 1.53125 7.046876 4.074219 1.433593 2.539062 1.367187 5.65625-.164063 8.136718l-4 6.925782c-2.210937 3.816406-7.089844 5.128906-10.914063 2.929687-3.828124-2.207031-5.144531-7.101563-2.933593-10.929687zm0 0"/><path d="m268.355469 113.199219 8-13.855469 13.855469 8-7.996094 13.855469zm0 0"/><path d="m478.632812 109.609375c-2.707031-10.269531-9.421874-19.023437-18.640624-24.304687l-79.804688-46.078126c-6.5-14.15625-20.621094-23.25-36.195312-23.3125h-4.191407l-18.351562-10.601562c-17.46875-10.035156-39.679688-5.492188-51.808594 10.601562h-19.292969c-12.121094-16.085937-34.316406-20.636718-51.785156-10.617187l-19 10.953125c-11.078125 1.21875-21.136719 7.039062-27.710938 16.039062l-3.34375 1.925782-8.515624-4.902344c-9.171876-5.320312-20.082032-6.769531-30.328126-4.027344-10.242187 2.738282-18.976562 9.441406-24.269531 18.628906l-23.199219 40.160157-2.167968 1.230469c-13.078125 7.53125-20.769532 21.808593-19.867188 36.871093l-34.757812 60.273438c-5.3320315 9.1875-6.789063 20.117187-4.050782 30.382812 2.738282 10.261719 9.445313 19.015625 18.640626 24.328125l97.699218 56.402344c1.359375 12.699219 8.695313 23.992188 19.75 30.398438l6.550782 3.792968v16.160156c.027343 22.078126 17.921874 39.972657 40 40h2.265624l3.128907 5.429688c5.273437 9.21875 14.027343 15.933594 24.296875 18.640625 3.390625.910156 6.886718 1.375 10.398437 1.375 7-.003906 13.875-1.863281 19.921875-5.390625l16-9.230469 15.988282 9.175781c1.160156.671876 2.355468 1.214844 3.554687 1.765626-7.320313 18.835937-7.035156 39.773437.800781 58.402343l6.542969 15.832031h17.34375l-9.214844-22.042968c-6.53125-15.53125-6.445312-33.054688.238281-48.519532.265626 0 .519532.058594.800782.058594 5.386718-.023437 10.714844-1.144531 15.65625-3.289062-7.226563 18.722656-6.90625 39.519531.886718 58.015625l6.65625 15.777343h17.367188l-9.320312-22.042968c-8.53125-20.15625-5.726563-43.332032 7.371093-60.871094 2.386719-3.183594 2.070313-7.640625-.746093-10.457031l-56-56c-7.902344-7.929688-7.902344-20.757813 0-28.6875 8.035156-7.648438 20.65625-7.648438 28.6875 0l72 72 11.3125-11.3125-7.582032-7.582031c1.070313-3.585938 1.625-7.304688 1.644532-11.046876v-20.921874c6.566406-4.148438 11.769531-10.140626 14.953124-17.222657 10.996094 12.984375 17.035157 29.445313 17.046876 46.464844v127.679687h16v-127.679687c.015624-21.230469-7.660157-41.742187-21.597657-57.753906l-8.207031-9.886719c-.496094-4.449219-1.753906-8.78125-3.722656-12.800781l76.121094-131.878907c5.355468-9.152343 6.8125-20.070312 4.046874-30.304687zm-318.640624-53.695313c-.015626-2.371093.324218-4.730468 1-7 .714843-2.179687 1.71875-4.25 2.984374-6.160156 4.234376-6.519531 11.378907-10.566406 19.144532-10.839844.292968-.015624.582031-.015624.871094 0h75.824218l-36 62.398438c-.074218-.472656-.195312-.941406-.359375-1.390625l-16-40c-1.210937-3.042969-4.15625-5.039063-7.429687-5.039063-3.277344 0-6.222656 1.996094-7.433594 5.039063l-16 40c-.992188 2.460937-.699219 5.257813.785156 7.457031 1.480469 2.203125 3.960938 3.527344 6.613282 3.535156h32c.863281-.015624 1.71875-.175781 2.53125-.464843l-10.53125 18.238281v-1.773438h-16v16h7.792968l-39.792968 68.933594zm44.1875 32h-8.371094l4.183594-10.464843zm-104.9375-36c3.175781-5.511718 8.414062-9.53125 14.558593-11.171874 6.144531-1.640626 12.691407-.773438 18.191407 2.417968l.496093.289063-42.542969 24.535156zm20.449218 224.335938-91.699218-52.9375c-11.496094-6.644531-15.433594-21.347656-8.796876-32.847656l27.640626-47.953125 17.460937 30.289062c-9.421875-1.050781-18.566406 3.59375-23.269531 11.824219l-8 13.855469c-1.0625 1.84375-1.34375 4.03125-.789063 6.085937.558594 2.050782 1.910157 3.796875 3.753907 4.851563l34.640624 20c3.828126 2.207031 8.722657.890625 10.929688-2.9375l6.871094-11.894531 32.183594 55.824218c.128906.269532.265624.535156.417968.796875l.429688.722657c-.675782 1.398437-1.269532 2.839843-1.773438 4.3125zm-53.839844-86.546875 6.933594 4c3.828125 2.210937 5.136719 7.101563 2.929688 10.929687l-4 6.929688-20.800782-12 4-6.929688c2.207032-3.820312 7.09375-5.132812 10.921876-2.929687zm-6.601562-57.789063c-1.527344-2.617187-2.554688-5.496093-3.03125-8.488281l-.046875-.464843c-1.253906-9.582032 3.394531-18.972657 11.773437-23.785157l4.082032-2.320312c.308594-.175781.605468-.371094.886718-.589844l71.128907-41.015625c0 .222656-.050781.429688-.050781.65625v176.65625l-13.367188 23.148438zm124.742188 236c-13.253907 0-24-10.746093-24-24v-6.921874l53.601562 30.921874zm52 22.199219c-10.386719 6.074219-23.679688 3.40625-30.925782-6.199219h36.199219l2.738281 1.597657zm132-49.511719-5.863282-5.863281c.074219-.113281.160156-.226562.234375-.34375l5.597657-9.761719zm16-40.570312v-3.125l2.167968-3.761719c-.363281 2.394531-1.097656 4.714844-2.167968 6.886719zm76.753906-168.117188-78.351563 135.679688-.207031.367188-31.785156 55.085937-32.503906-32.503906c-14.167969-14.167969-37.144532-14.167969-51.3125 0-14.167969 14.171875-14.167969 37.144531 0 51.3125l45.304687 45.296875c-7.660156 7.003906-18.988281 8.195312-27.9375 2.945312l-138.550781-80c-7.542969-4.367187-12.132813-12.472656-12-21.183594.050781-4.078124 1.15625-8.070312 3.199218-11.59375l144-249.398437c6.648438-11.492187 21.347657-15.429687 32.847657-8.800781l138.570312 80c5.515625 3.179687 9.539063 8.425781 11.175781 14.582031 1.640626 6.152344.757813 12.707031-2.449218 18.210937zm0 0"/><path d="m342.25 139.617188c-1.308594-3.722657-5.136719-5.933594-9.015625-5.207032l-62.585937 11.710938c-12.304688 2.300781-21.878907 12.023437-23.992188 24.363281-2.109375 12.34375 3.6875 24.695313 14.53125 30.957031l2.984375 1.726563c4.871094 2.789062 10.429687 4.152343 16.039063 3.9375-7.171876 5.789062-15.46875 10.023437-24.359376 12.4375-3.128906.839843-5.441406 3.476562-5.863281 6.683593-.421875 3.210938 1.132813 6.355469 3.933594 7.972657l41.601563 24c1.21875.699219 2.59375 1.0625 4 1.066406 2.484374 0 4.828124-1.15625 6.34375-3.128906 1.511718-1.972657 2.023437-4.535157 1.382812-6.9375-2.355469-8.90625-2.835938-18.207031-1.40625-27.3125 2.613281 4.96875 6.570312 9.09375 11.421875 11.914062l2.984375 1.726563c10.84375 6.277344 24.453125 5.132812 34.09375-2.871094 9.644531-8.003906 13.277344-21.167969 9.105469-32.984375zm-53.214844 96.375-12.65625-7.28125c4.738282-2.433594 9.230469-5.316407 13.414063-8.613282-.765625 5.261719-1.019531 10.585938-.757813 15.894532zm58.199219-19.414063c-3.855469 6.644531-12.359375 8.917969-19.015625 5.085937l-2.976562-1.71875c-2.382813-1.371093-4.304688-3.421874-5.519532-5.890624l-9.847656-19.902344c-.210938-.363282-.449219-.707032-.714844-1.03125-.179687-.300782-.378906-.585938-.597656-.855469-1.097656-1.199219-2.53125-2.035156-4.113281-2.402344-.242188-.035156-.484375-.050781-.726563-.054687-.507812-.097656-1.019531-.140625-1.535156-.128906l-22.195312 1.433593c-2.742188.167969-5.472657-.472656-7.855469-1.839843l-2.984375-1.722657c-5.035156-2.917969-7.722656-8.660156-6.742188-14.394531.980469-5.738281 5.425782-10.257812 11.144532-11.339844l55.855468-10.449218 18.863282 53.601562c1.367187 3.835938.988281 8.078125-1.039063 11.609375zm0 0"/></svg>