<?xml version="1.0" standalone="no"?>
<!DOCTYPE svg PUBLIC "-//W3C//DTD SVG 20010904//EN"
 "http://www.w3.org/TR/2001/REC-SVG-20010904/DTD/svg10.dtd">
<svg version="1.0" xmlns="http://www.w3.org/2000/svg"
 width="700.000000pt" height="700.000000pt" viewBox="0 0 700.000000 700.000000"
 preserveAspectRatio="xMidYMid meet">
<metadata>
Created by potrace 1.11, written by Peter Selinger 2001-2013
</metadata>
<g transform="translate(0.000000,700.000000) scale(0.100000,-0.100000)"
fill="#000000" stroke="none">
<path d="M4343 6980 c-62 -22 -131 -67 -166 -110 -15 -17 -50 -72 -80 -123
-71 -122 -510 -882 -535 -927 -10 -19 -51 -89 -89 -155 -77 -132 -130 -223
-301 -520 -63 -110 -213 -369 -332 -575 -119 -206 -233 -404 -254 -440 -20
-36 -41 -72 -46 -80 -9 -13 -404 -698 -462 -799 -11 -19 -63 -111 -117 -205
-113 -197 -124 -225 -123 -315 1 -78 4 -96 31 -155 40 -91 97 -144 241 -224
30 -16 91 -51 135 -77 80 -48 98 -58 210 -122 33 -19 67 -38 75 -43 45 -28
167 -98 180 -103 8 -4 31 -17 50 -28 44 -26 273 -160 320 -187 19 -10 177
-101 350 -202 173 -100 340 -196 370 -213 30 -16 103 -59 162 -94 59 -34 112
-63 117 -63 6 0 11 -4 11 -8 0 -18 186 -101 240 -106 92 -10 196 18 270 74
l25 19 -372 373 c-205 205 -382 385 -393 400 -71 92 -111 225 -106 353 4 108
17 159 62 245 97 185 291 303 499 303 92 0 163 -17 255 -61 69 -33 97 -58 366
-324 276 -274 291 -287 302 -266 6 13 25 46 41 73 16 28 36 61 44 75 15 28
154 268 562 975 256 442 313 541 332 575 11 19 46 80 78 135 528 913 662 1148
681 1195 33 81 28 194 -13 281 -33 70 -98 139 -166 178 -23 13 -56 32 -74 42
-17 10 -50 29 -72 43 -22 15 -43 26 -46 26 -2 0 -34 18 -70 40 -36 22 -68 40
-71 40 -2 0 -17 8 -32 19 -21 14 -400 234 -729 422 -18 11 -48 27 -65 38 -57
32 -306 176 -751 433 -143 82 -278 156 -300 165 -64 23 -182 25 -244 3z"/>
<path d="M2537 6739 c-104 -25 -198 -102 -250 -209 l-32 -65 -3 -925 c-1 -509
-1 -1051 0 -1205 l3 -280 105 183 c58 100 113 197 124 215 26 45 238 412 304
527 30 52 87 151 127 220 246 425 410 709 425 735 9 17 68 118 130 225 62 107
121 210 131 228 71 124 174 302 191 330 l20 32 -619 -1 c-340 -1 -635 -5 -656
-10z"/>
<path d="M1550 6613 c-75 -18 -71 -17 -110 -38 -57 -30 -121 -104 -182 -211
-31 -55 -67 -117 -79 -139 -13 -21 -19 -36 -14 -33 6 3 53 30 105 61 52 30
111 64 130 74 182 102 410 237 410 244 0 13 -101 46 -155 51 -28 2 -75 -2
-105 -9z"/>
<path d="M1970 6367 c-14 -7 -133 -76 -265 -152 -132 -76 -325 -188 -430 -248
-104 -60 -206 -118 -225 -129 -19 -11 -66 -39 -105 -61 -38 -23 -82 -48 -97
-57 -144 -81 -218 -194 -220 -338 -2 -107 2 -117 158 -385 57 -98 104 -180
104 -182 0 -2 33 -59 73 -126 40 -68 87 -149 104 -179 17 -30 71 -125 120
-210 163 -281 498 -863 549 -952 27 -48 52 -88 55 -88 3 0 15 17 26 38 11 20
57 100 102 177 l81 140 -2 1382 -3 1383 -25 -13z"/>
<path d="M477 5013 c-7 -13 -227 -393 -252 -438 -13 -22 -62 -107 -110 -190
-47 -82 -92 -172 -100 -200 -23 -79 -14 -180 22 -256 58 -121 46 -113 683
-477 19 -11 107 -61 195 -112 88 -51 174 -100 190 -110 17 -9 136 -78 266
-154 130 -75 241 -136 246 -136 5 0 14 13 20 30 11 28 6 39 -75 180 -110 191
-104 179 -237 410 -62 107 -122 211 -133 230 -10 19 -113 197 -227 395 -114
198 -269 466 -343 595 -154 268 -139 244 -145 233z"/>
<path d="M5762 2630 c-6 -11 -12 -30 -12 -42 1 -19 3 -17 16 11 17 40 15 61
-4 31z"/>
<path d="M4206 2602 c-63 -21 -140 -91 -173 -156 -22 -42 -26 -65 -27 -136 -1
-140 -15 -123 513 -652 317 -318 470 -477 477 -499 15 -44 3 -84 -47 -159
-108 -163 -157 -328 -157 -533 0 -139 21 -242 78 -384 l33 -83 674 0 673 0 0
918 c-1 755 -4 933 -16 1006 -29 177 -104 354 -208 493 l-40 52 -37 -62 c-46
-76 -122 -156 -186 -195 -8 -5 -13 -74 -16 -222 -4 -195 -10 -266 -23 -279 -2
-3 23 -32 56 -66 l61 -62 -87 -87 c-47 -48 -88 -86 -90 -84 -2 2 -263 263
-581 580 -477 475 -587 581 -628 599 -67 29 -182 34 -249 11z"/>
<path d="M5452 2094 l-44 -77 46 -46 46 -46 0 123 c0 67 -1 122 -2 122 -2 0
-23 -35 -46 -76z"/>
<path d="M2252 1882 c4 -83 9 -109 35 -163 38 -81 100 -143 183 -183 l65 -31
275 -3 c151 -2 273 -1 270 1 -6 5 -491 287 -555 322 -22 12 -67 38 -100 57
-33 19 -71 41 -85 49 -14 8 -32 19 -40 25 -8 6 -23 14 -34 18 -17 6 -18 1 -14
-92z"/>
<path d="M2960 1245 c0 -17 85 -83 139 -108 56 -25 78 -30 146 -29 44 0 87 2
95 4 28 7 125 54 174 85 46 29 48 31 28 42 -20 11 -582 17 -582 6z"/>
<path d="M4550 880 c-52 -17 -118 -28 -167 -29 -17 -1 -26 -13 -42 -54 -77
-209 -72 -469 15 -692 l40 -100 117 -3 c64 -1 117 0 117 2 0 3 -8 27 -19 53
-43 112 -64 232 -65 383 -1 188 13 291 58 418 8 23 12 42 8 41 -4 -1 -32 -9
-62 -19z"/>
</g>
</svg>
