<?xml version="1.0" standalone="no"?>
<!DOCTYPE svg PUBLIC "-//W3C//DTD SVG 20010904//EN"
 "http://www.w3.org/TR/2001/REC-SVG-20010904/DTD/svg10.dtd">
<svg version="1.0" xmlns="http://www.w3.org/2000/svg"
 width="700.000000pt" height="700.000000pt" viewBox="0 0 700.000000 700.000000"
 preserveAspectRatio="xMidYMid meet">
<metadata>
Created by potrace 1.11, written by Peter Selinger 2001-2013
</metadata>
<g transform="translate(0.000000,700.000000) scale(0.100000,-0.100000)"
fill="#000000" stroke="none">
<path d="M4343 6980 c-62 -22 -131 -67 -166 -110 -29 -34 -33 -41 -375 -633
-133 -231 -242 -423 -242 -428 0 -5 -4 -9 -10 -9 -5 0 -10 -4 -10 -9 0 -5 -57
-108 -126 -228 -70 -120 -195 -337 -279 -483 -84 -146 -201 -348 -260 -450
-59 -102 -119 -206 -134 -231 -134 -233 -194 -336 -202 -349 -8 -13 -410 -709
-461 -799 -11 -19 -63 -111 -117 -205 -54 -94 -104 -189 -111 -211 -20 -60
-15 -171 9 -236 39 -104 99 -163 251 -247 30 -16 91 -51 135 -77 80 -48 98
-58 210 -122 33 -19 67 -38 75 -43 45 -28 167 -98 180 -103 8 -4 31 -17 50
-28 44 -26 273 -160 320 -187 19 -10 177 -101 350 -202 173 -100 340 -196 370
-213 30 -16 103 -59 162 -94 59 -34 112 -63 117 -63 6 0 11 -4 11 -8 0 -18
186 -101 240 -106 92 -10 196 18 270 74 l25 19 -372 373 c-205 205 -382 385
-393 400 -33 43 -77 138 -94 203 -19 73 -15 226 8 298 75 237 296 400 541 400
92 0 163 -17 255 -61 69 -33 97 -58 366 -324 276 -274 291 -287 302 -266 6 13
25 46 41 73 16 28 36 61 44 75 15 28 154 268 562 975 256 442 313 541 332 575
36 63 174 301 281 485 57 99 116 200 129 225 14 25 38 65 53 90 86 142 285
497 300 537 13 34 17 71 16 129 -4 140 -71 246 -209 329 -32 19 -60 35 -63 35
-3 0 -18 8 -32 19 -15 10 -47 29 -72 43 -25 14 -234 134 -465 268 -231 134
-435 251 -452 261 -78 45 -103 59 -198 114 -55 32 -156 90 -225 130 -69 40
-244 141 -388 224 -145 84 -283 159 -305 168 -64 23 -182 25 -244 3z m557
-1264 c368 -58 672 -274 838 -594 97 -186 133 -344 128 -557 -2 -71 -6 -141
-10 -155 -3 -14 -8 -38 -12 -55 -43 -213 -189 -462 -352 -603 -147 -126 -298
-205 -479 -251 -447 -112 -923 61 -1188 434 -94 132 -165 293 -191 430 -2 11
-8 42 -13 68 -11 61 -12 247 -1 312 5 28 12 67 15 89 21 125 111 320 207 447
141 187 363 339 587 401 79 22 92 24 176 34 28 4 51 7 52 8 6 5 202 -2 243 -8z"/>
<path d="M4537 5286 c-141 -51 -165 -242 -41 -328 132 -92 313 19 290 178 -3
22 -5 42 -6 46 0 4 -14 23 -32 43 -57 66 -135 88 -211 61z"/>
<path d="M5167 4899 c-59 -31 -93 -86 -96 -156 -2 -65 13 -104 57 -146 26 -25
100 -55 127 -52 53 5 92 21 125 51 128 115 45 325 -127 324 -28 -1 -64 -9 -86
-21z"/>
<path d="M4109 4795 c-33 -18 -73 -99 -98 -196 -19 -74 -22 -223 -7 -293 84
-370 409 -586 771 -511 87 18 202 67 262 111 91 67 193 194 193 240 0 50 -22
71 -158 150 -75 43 -144 84 -154 89 -10 6 -115 66 -234 135 -119 69 -235 136
-258 148 -22 13 -87 50 -143 83 -106 61 -130 68 -174 44z"/>
<path d="M2537 6739 c-104 -25 -198 -102 -250 -209 l-32 -65 -3 -1204 c-1
-663 1 -1201 5 -1197 5 4 22 31 38 60 68 119 168 293 187 326 48 83 433 748
451 780 10 19 52 91 92 160 59 101 211 364 315 545 9 17 68 118 130 225 62
107 121 210 131 228 71 124 174 302 191 330 l20 32 -619 -1 c-340 -1 -635 -5
-656 -10z"/>
<path d="M1550 6613 c-30 -7 -60 -15 -67 -16 -27 -6 -114 -70 -141 -103 -16
-19 -54 -79 -85 -132 -30 -54 -66 -115 -78 -137 -13 -21 -19 -36 -14 -33 6 3
53 30 105 61 52 30 111 64 130 74 182 102 410 237 410 244 0 13 -101 46 -155
51 -28 2 -75 -2 -105 -9z"/>
<path d="M1970 6367 c-14 -7 -117 -67 -230 -132 -113 -65 -311 -179 -440 -253
-129 -74 -278 -160 -330 -191 -52 -31 -107 -62 -122 -71 -144 -80 -218 -194
-220 -338 -1 -70 8 -115 35 -167 18 -37 138 -247 312 -545 39 -69 83 -145 97
-170 14 -25 67 -117 118 -205 141 -243 490 -849 546 -947 27 -48 52 -88 55
-88 3 0 15 17 26 38 11 20 57 100 102 177 l81 140 -2 1382 -3 1383 -25 -13z"/>
<path d="M477 5013 c-3 -4 -14 -24 -25 -43 -11 -19 -61 -107 -112 -195 -51
-88 -103 -178 -115 -200 -13 -22 -62 -107 -110 -190 -47 -82 -92 -172 -100
-200 -23 -78 -14 -180 22 -256 53 -115 78 -131 672 -470 25 -15 118 -68 206
-119 88 -51 174 -100 190 -110 17 -9 136 -78 266 -154 130 -75 241 -136 246
-136 5 0 14 13 20 30 12 31 5 44 -178 358 -9 15 -77 133 -151 262 -75 129
-229 397 -343 595 -114 198 -269 466 -343 595 -154 268 -139 244 -145 233z"/>
<path d="M5762 2630 c-6 -11 -12 -30 -12 -42 1 -19 3 -17 16 11 17 40 15 61
-4 31z"/>
<path d="M4206 2602 c-63 -21 -140 -91 -173 -156 -22 -42 -26 -65 -27 -136 -1
-140 -15 -123 513 -652 318 -318 470 -477 477 -499 15 -44 3 -84 -47 -159
-108 -163 -157 -328 -157 -533 0 -139 21 -242 78 -384 l33 -83 674 0 673 0 0
918 c-1 755 -4 933 -16 1006 -26 160 -90 321 -178 450 -72 104 -66 102 -108
32 -40 -67 -105 -137 -161 -176 l-37 -25 -1 -190 c0 -104 -2 -197 -4 -205 -1
-8 -6 -33 -9 -54 -4 -22 -9 -42 -12 -45 -2 -3 23 -32 56 -66 l61 -62 -87 -87
c-47 -48 -88 -86 -90 -84 -2 2 -263 263 -581 580 -477 475 -587 581 -628 599
-67 29 -182 34 -249 11z"/>
<path d="M5452 2094 l-44 -77 46 -46 46 -46 0 123 c0 67 -1 122 -2 122 -2 0
-23 -35 -46 -76z"/>
<path d="M2252 1883 c3 -83 8 -108 34 -163 39 -82 101 -144 184 -184 l65 -31
275 -3 c151 -2 273 -1 270 1 -6 5 -491 287 -555 322 -22 12 -67 38 -100 57
-33 19 -71 41 -85 49 -14 8 -32 19 -40 25 -8 6 -23 14 -34 18 -17 6 -18 0 -14
-91z"/>
<path d="M2960 1245 c0 -17 85 -83 139 -108 57 -26 78 -30 151 -30 94 0 120 8
238 76 112 63 98 67 -245 67 -156 0 -283 -2 -283 -5z"/>
<path d="M4550 880 c-52 -17 -118 -28 -167 -29 -17 -1 -26 -13 -42 -54 -77
-209 -72 -469 15 -692 l40 -100 117 -3 c64 -1 117 0 117 2 0 3 -8 27 -19 53
-43 112 -64 232 -65 383 -1 188 13 291 58 418 8 23 12 42 8 41 -4 -1 -32 -9
-62 -19z"/>
</g>
</svg>
