<svg width="32" height="32" viewBox="0 0 32 32" fill="none" xmlns="http://www.w3.org/2000/svg">
<rect width="32" height="32" fill="white"/>
<path d="M9.89117 10.88L14.9823 15.9712L9.89117 21.0623L4.8 15.9712L9.89117 10.88Z" fill="black"/>
<path d="M22.0512 10.88L27.1423 15.9712L22.0512 21.0623L16.96 15.9712L22.0512 10.88Z" fill="black"/>
<path d="M10.88 22.0512L15.9712 16.96L21.0623 22.0512L15.9712 27.1423L10.88 22.0512Z" fill="black"/>
<path d="M10.88 9.89117L15.9712 4.8L21.0623 9.89117L15.9712 14.9823L10.88 9.89117Z" fill="black"/>
<path d="M31.0112 0L31.096 0.084878L26.0049 5.17605L20.9137 0.084878L20.9986 0H31.0112Z" fill="black"/>
<path d="M32 1.15858L26.9937 6.16488L32 11.1712V1.15858Z" fill="black"/>
<path d="M32 20.9986L26.9937 26.0049L32 31.0112V20.9986Z" fill="black"/>
<path d="M31.0112 32L26.0049 26.9937L20.9986 32H31.0112Z" fill="black"/>
<path d="M11.1712 32L6.16488 26.9937L1.15859 32H11.1712Z" fill="black"/>
<path d="M0 31.0112L0.0848799 31.096L5.17605 26.0049L0.0848789 20.9137L0 20.9986V31.0112Z" fill="black"/>
<path d="M0 11.1712L0.0848789 11.256L5.17605 6.16488L0.084878 1.07371L0 1.15859V11.1712Z" fill="black"/>
<path d="M11.1712 0L11.256 0.084878L6.16488 5.17605L1.07371 0.084878L1.15859 0H11.1712Z" fill="black"/>
</svg>
